<?xml version="1.0" ?><svg enable-background="new 0 0 512 512" id="Layer_1" version="1.1" viewBox="0 0 512 512" xml:space="preserve" xmlns="http://www.w3.org/2000/svg" xmlns:xlink="http://www.w3.org/1999/xlink"><g><polygon fill="#1965E0" points="270.1,190.4 255.8,150 241.6,190.4 255.8,230.9  "/><linearGradient gradientUnits="userSpaceOnUse" id="SVGID_1_" x1="255.8364" x2="255.8364" y1="221.1098" y2="159.7755"><stop offset="0" style="stop-color:#FFFFFF;stop-opacity:0"/><stop offset="0.92" style="stop-color:#FFFFFF;stop-opacity:0.736"/><stop offset="1" style="stop-color:#FFFFFF;stop-opacity:0.8"/></linearGradient><polygon fill="url(#SVGID_1_)" points="245,190.4 255.8,159.8 266.6,190.4 255.8,221.1  "/><polygon fill="#1965E0" points="307.7,181.7 274.4,197.6 258.5,230.9 291.7,214.9  "/><linearGradient gradientUnits="userSpaceOnUse" id="SVGID_2_" x1="283.0959" x2="283.0959" y1="223.9691" y2="188.6149"><stop offset="0" style="stop-color:#FFFFFF;stop-opacity:0"/><stop offset="0.92" style="stop-color:#FFFFFF;stop-opacity:0.736"/><stop offset="1" style="stop-color:#FFFFFF;stop-opacity:0.8"/></linearGradient><polygon fill="url(#SVGID_2_)" points="276.9,200.1 300.8,188.6 289.3,212.5 265.4,224  "/><polygon fill="#1965E0" points="204,181.7 219.9,214.9 253.2,230.9 237.2,197.6  "/><linearGradient gradientUnits="userSpaceOnUse" id="SVGID_3_" x1="228.5759" x2="228.5759" y1="223.9691" y2="188.6149"><stop offset="0" style="stop-color:#FFFFFF;stop-opacity:0"/><stop offset="0.92" style="stop-color:#FFFFFF;stop-opacity:0.736"/><stop offset="1" style="stop-color:#FFFFFF;stop-opacity:0.8"/></linearGradient><polygon fill="url(#SVGID_3_)" points="222.4,212.5 210.9,188.6 234.8,200.1 246.3,224  "/><polygon fill="#1965E0" points="256,331.7 284,274 275.2,228.3 255.8,244.7 236.8,228.3 228,274  "/><linearGradient gradientUnits="userSpaceOnUse" id="SVGID_4_" x1="255.9999" x2="255.9999" y1="324.252" y2="234.3852"><stop offset="0" style="stop-color:#FFFFFF;stop-opacity:0"/><stop offset="0.92" style="stop-color:#FFFFFF;stop-opacity:0.736"/><stop offset="1" style="stop-color:#FFFFFF;stop-opacity:0.8"/></linearGradient><polygon fill="url(#SVGID_4_)" points="231.4,273.6 238.9,234.4 255.8,249 273.1,234.4 280.6,273.6 256,324.3  "/><path d="M81.9,143.1c0,12.8,10.4,27.6,23.2,32.9l77,32.2v2.2l-76.7-32c0,12.8,10.4,27.6,23.2,32.9l53.5,22.3v2.2   l-55.1-23c0,12.8,10.4,27.6,23.2,32.9L220,274l8-27.5l-33.7-64c-7.5-14.3-20.1-26.2-33.6-31.8L55.9,106.9   c0,12.8,10.4,27.6,23.2,32.9l103.1,43v2.2L81.9,143.1z" fill="#1965E0"/><linearGradient gradientUnits="userSpaceOnUse" id="SVGID_5_" x1="142.0825" x2="142.0825" y1="269.6571" y2="111.9728"><stop offset="0" style="stop-color:#FFFFFF;stop-opacity:0"/><stop offset="0.92" style="stop-color:#FFFFFF;stop-opacity:0.736"/><stop offset="1" style="stop-color:#FFFFFF;stop-opacity:0.8"/></linearGradient><path d="M151.6,242.7c-10-4.2-18.4-14.6-20.6-24.8l54.5,22.8v-9.2L130,208.3c-10-4.2-18.4-14.6-20.7-24.8   l76.1,31.8v-9.2l-79-33c-10-4.2-18.4-14.6-20.7-24.8l99.7,41.6v-9.2L80.3,136.8c-10-4.2-18.4-14.6-20.7-24.8l99.8,41.7   c12.8,5.3,24.7,16.7,31.9,30.4l33.1,62.8l-6.6,22.8L151.6,242.7z" fill="url(#SVGID_5_)"/><path d="M351.3,150.6c-13.5,5.6-26,17.5-33.6,31.8l-33.7,64l8,27.5l69.7-28.3c12.8-5.4,23.2-20.1,23.2-32.9   l-55.1,23v-2.2l53.5-22.3c12.8-5.4,23.2-20.1,23.2-32.9l-76.7,32v-2.2l77-32.2c12.8-5.4,23.2-20.1,23.2-32.9L329.8,185v-2.2   l103.1-43c12.8-5.4,23.2-20.1,23.2-32.9L351.3,150.6z" fill="#1965E0"/><linearGradient gradientUnits="userSpaceOnUse" id="SVGID_6_" x1="369.9173" x2="369.9173" y1="269.6571" y2="111.9728"><stop offset="0" style="stop-color:#FFFFFF;stop-opacity:0"/><stop offset="0.92" style="stop-color:#FFFFFF;stop-opacity:0.736"/><stop offset="1" style="stop-color:#FFFFFF;stop-opacity:0.8"/></linearGradient><path d="M287.5,246.8l33.1-62.8c7.2-13.7,19.1-25,31.9-30.4l99.8-41.7c-2.2,10.2-10.6,20.7-20.7,24.8   l-105.1,43.9v9.2l99.7-41.6c-2.2,10.2-10.6,20.7-20.7,24.8l-79,33v9.2l76.1-31.8c-2.2,10.2-10.6,20.7-20.7,24.8l-55.5,23.1v9.2   l54.5-22.8c-2.2,10.2-10.6,20.7-20.7,24.8l-66.3,26.9L287.5,246.8z" fill="url(#SVGID_6_)"/><path d="M164.8,141.2l90.1-52l91,52.6c0.5-0.2,0.9-0.4,1.4-0.6l23.6-9.9l-116.1-67l-115.1,66.5l24.9,10.4   C164.7,141.2,164.8,141.2,164.8,141.2z" fill="#1965E0"/><linearGradient gradientUnits="userSpaceOnUse" id="SVGID_7_" x1="255.365" x2="255.365" y1="138.1638" y2="68.0376"><stop offset="0" style="stop-color:#FFFFFF;stop-opacity:0"/><stop offset="0.92" style="stop-color:#FFFFFF;stop-opacity:0.736"/><stop offset="1" style="stop-color:#FFFFFF;stop-opacity:0.8"/></linearGradient><polygon fill="url(#SVGID_7_)" points="254.9,85.5 164.6,137.6 147,130.3 254.9,68 363.7,130.8 346.1,138.2  "/><path d="M397.6,214.5v121.9l-142.7,82.4l-42.6-24.6c-0.1,0-0.2,0-0.3,0c-2-0.1-4.1-0.2-6.1-0.4l-1.5-0.1   c-0.1,0-0.2,0-0.3,0l-1.3,0c-0.5,0-1.2,0.1-1.9,0.3c-1.1,0.3-2.3,0.9-3.4,1.6c-0.4,0.3-0.8,0.7-1.4,1.2c-0.1,0.1-0.2,0.2-0.3,0.4   c-0.1,0.1-0.1,0.2-0.2,0.2l-0.9,1.3c-1.7,2.6-3.3,5.1-4.8,7.4l65,37.6l164.3-94.9V180.8c-0.9,0.6-1.8,1.3-2.8,1.8   C415,194.5,407.7,206.6,397.6,214.5z" fill="#1965E0"/><linearGradient gradientUnits="userSpaceOnUse" id="SVGID_8_" x1="305.2222" x2="305.2222" y1="440.0547" y2="195.9966"><stop offset="0" style="stop-color:#FFFFFF;stop-opacity:0"/><stop offset="0.92" style="stop-color:#FFFFFF;stop-opacity:0.736"/><stop offset="1" style="stop-color:#FFFFFF;stop-opacity:0.8"/></linearGradient><path d="M194.4,405.1c1-1.5,2-3,3-4.6l0.8-1.1l0.3-0.4c0.4-0.4,0.6-0.6,0.9-0.8c0.7-0.6,1.5-0.9,2.2-1.1   c0.4-0.1,0.8-0.2,1.2-0.2l1,0c0.1,0,1.8,0.1,1.8,0.1c1.9,0.1,3.9,0.2,5.7,0.3l43.6,25.2l146-84.3V216.1   c6.5-5.5,11.8-12.6,15.1-20.1v151.1l-161.1,93L194.4,405.1z" fill="url(#SVGID_8_)"/><path d="M176.1,389.5l0.9-2.3c0.3-0.7,0.7-1.4,1-2l0.4-0.8c1.2-1.9,2.3-3.6,3.6-5c0.5-0.6,1-1.1,1.6-1.6l-71.6-41.3   V212.7c-8.9-7.9-15.3-19.1-16.7-30.1c-1.7-1-3.4-2.2-4.9-3.5v169.8l82.9,47.9C174.3,394.5,175.2,392,176.1,389.5z" fill="#1965E0"/><linearGradient gradientUnits="userSpaceOnUse" id="SVGID_9_" x1="136.2179" x2="136.2179" y1="392.0442" y2="190.1347"><stop offset="0" style="stop-color:#FFFFFF;stop-opacity:0"/><stop offset="0.92" style="stop-color:#FFFFFF;stop-opacity:0.736"/><stop offset="1" style="stop-color:#FFFFFF;stop-opacity:0.8"/></linearGradient><path d="M93.8,347.1V190.1c2.6,8.7,8,17.3,15.1,24v124.2l69.7,40.2c-1,1.3-2,2.6-2.9,4.2l-0.5,0.9   c-0.4,0.7-0.8,1.5-1.2,2.3l-0.9,2.3c-0.5,1.3-0.9,2.5-1.4,3.7L93.8,347.1z" fill="url(#SVGID_9_)"/><path d="M190.7,395.1l0.4-0.6c0.3-0.4,0.6-0.8,0.9-1.1c0.7-0.7,1.4-1.4,2.2-2c1.6-1.2,3.4-2.1,5.4-2.6   c1-0.2,2-0.4,3-0.4c0.5,0,1,0,1.6,0l0.6,0c0.1,0-0.4,0-0.2,0l0.1,0l0.1,0l0.3,0l1.1,0.1c3.1,0.2,6.2,0.3,9.4,0.5   c3.2,0.2,6.4,0.3,9.7,0.4c1.6,0.1,3.3,0.1,5,0.2c1.7,0,3.3,0.1,5,0.1c6.7,0.2,13.5,0.2,20.3,0.3c6.8,0,13.6-0.1,20.3-0.3l1.3,0   c0.4,0,0.8,0,1.4-0.1c1.2-0.1,2.3-0.2,3.5-0.3c1.1-0.2,2.3-0.5,3.4-0.8c1.1-0.3,2.2-0.8,3.3-1.2c4.2-1.8,7.9-4.7,10.6-8.1   c5.5-6.8,7.3-15.8,5.3-23.3c-0.2-0.9-0.6-2-0.9-3l-0.6-1.5c-0.2-0.4-0.3-0.7-0.5-1c-0.4-0.8-0.8-1.5-1.2-2.3   c-0.5-0.8-1-1.5-1.6-2.2c-1.1-1.4-2.3-2.6-3.6-3.7c-1.3-1.1-2.6-2-4-2.8c-2.8-1.5-5.7-2.4-8.5-2.8c-0.7-0.1-1.4-0.1-2.1-0.2   c-0.7,0-1.5,0-2.1,0c-0.6,0.1-1.2,0.1-1.8,0.2c-0.5,0.1-1.1,0.1-1.6,0.2c-4.1,0.6-7.8,1.1-10.7,1.6c-6,1-9.4,1.7-9.4,1.7   s3.4,0.8,9.4,1.7c3,0.5,6.6,1,10.7,1.6c0.5,0.1,1,0.1,1.6,0.2c0.5,0.1,1,0.2,1.5,0.2c0.5,0.1,0.8,0.2,1.2,0.3   c0.4,0.2,0.9,0.3,1.3,0.5c1.7,0.7,3.4,1.7,4.9,3c1.5,1.3,2.7,2.9,3.6,4.6c0.2,0.4,0.4,0.9,0.6,1.4l0,0.1l0,0c0,0.1-0.3-0.6-0.2-0.3   l0.1,0.2l0.2,0.5l0.4,1c0.1,0.3,0.3,0.7,0.3,1l0,0.6c0,0.4,0.1,0.7,0.1,1.3c0.4,4-1.3,8.1-4.1,11c-1.5,1.4-3.2,2.5-5,3.1   c-0.5,0.1-0.9,0.3-1.4,0.4c-0.5,0.1-1,0.1-1.5,0.2c-0.5,0-1,0-1.5,0c-0.2,0-0.7,0-1.1,0l-1.3,0c-6.7-0.2-13.5-0.2-20.3-0.3   c-6.8,0-13.6,0.1-20.3,0.3c-1.7,0-3.3,0.1-5,0.1c-1.7,0.1-3.3,0.1-5,0.2c-3.3,0.1-6.5,0.2-9.7,0.4c-3.2,0.2-6.3,0.3-9.4,0.5   l-1.1,0.1l-0.3,0l-0.1,0l-0.1,0l-0.3,0l-0.6,0.1l-0.6,0.1l-0.3,0l-0.4,0.1l-1.7,0.2c-2,0.4-3.9,1-5.6,1.8c-3.5,1.6-6.6,3.8-8.9,6.5   c-1.2,1.3-2.2,2.7-3,4.2c-0.4,0.7-0.8,1.5-1.1,2.2c-0.2,0.4-0.3,0.7-0.5,1.1l-0.3,0.9c-1.8,4.8-3.4,9.3-4.7,13.2   c-1.3,4-2.5,7.4-3.3,10.3c-1.8,5.8-2.6,9.2-2.6,9.2s2.2-2.7,5.7-7.6c1.8-2.4,3.9-5.4,6.2-8.9c2.3-3.5,4.9-7.4,7.7-11.7L190.7,395.1   z" fill="#1965E0"/><linearGradient gradientUnits="userSpaceOnUse" id="SVGID_10_" x1="240.672" x2="240.672" y1="406.5609" y2="339.835"><stop offset="0" style="stop-color:#FFFFFF;stop-opacity:0"/><stop offset="0.92" style="stop-color:#FFFFFF;stop-opacity:0.736"/><stop offset="1" style="stop-color:#FFFFFF;stop-opacity:0.8"/></linearGradient><path d="M179.5,405.7c1.3-4,2.9-8.4,4.7-13.1l0.3-0.8l0.4-1c0.2-0.5,0.4-0.9,0.7-1.4   c0.1-0.2,0.2-0.4,0.3-0.6c0.9-1.4,1.7-2.6,2.6-3.6c2.1-2.3,4.8-4.3,7.8-5.7c1.5-0.7,3.1-1.2,4.9-1.5l1.6-0.2l0.4,0l1.2-0.1l0.3,0   l1.6-0.1c2-0.1,3.9-0.2,5.9-0.3c1.1-0.1,2.3-0.1,3.4-0.2c2.5-0.1,5.1-0.2,7.8-0.3l6.9-0.3l5-0.1c5.6-0.2,11.5-0.2,17.1-0.2l3.1,0   l2.4,0c5.9,0,11.9,0.1,17.8,0.3c0,0,2,0,2.2,0c0.2,0,0.4,0,0.5,0c0.3,0,0.6,0,0.9,0l0.6,0l0.3-0.1c0.4-0.1,0.8-0.1,1.2-0.2l0.2,0   l0.2,0c0.3-0.1,0.6-0.2,0.9-0.2c0.2,0,0.3-0.1,0.5-0.1l0.2,0l0.2-0.1c2.3-0.8,4.4-2.1,6.2-3.9c3.6-3.6,5.5-8.6,5.1-13.4   c0-0.6-0.1-1-0.1-1.2l0-0.1l-0.1-0.8l0-0.1c-0.1-0.5-0.2-0.9-0.3-1.2c0-0.1-0.7-2-0.7-2l0,0l-0.2-0.4c-0.2-0.4-0.4-0.8-0.6-1.2   c-1-2.1-2.5-3.9-4.3-5.6c-1.6-1.4-3.5-2.6-5.7-3.5c-0.4-0.2-0.8-0.3-1.1-0.4c-0.1,0-0.2-0.1-0.4-0.1l-0.1,0l-0.4-0.1   c-0.3-0.1-0.7-0.2-1.1-0.3l-0.1,0l-1.6-0.3c0,0-2.2-0.3-2.5-0.3c0.3,0,2.3-0.3,2.3-0.3l1.6-0.1c0.2,0,0.5,0,0.7,0c0.3,0,0.7,0,1,0   c0.2,0,0.4,0,0.6,0c0.4,0,0.8,0,1.1,0.1l0.1,0c2.5,0.3,5,1.1,7.4,2.4c1.2,0.6,2.4,1.5,3.5,2.4c1.1,0.9,2.2,2,3.2,3.3   c0.5,0.6,0.9,1.1,1.3,1.8l1.2,2.2c0,0.1,0.1,0.2,0.2,0.4c0.1,0.1,0.1,0.2,0.2,0.3l0.5,1.4l0.2,0.5c0.2,0.6,0.5,1.4,0.6,1.8l0,0.1   l0,0.1c1.8,6.8,0,14.7-4.7,20.5c-2.4,3.1-5.6,5.5-9.3,7.1l-0.6,0.2c-0.8,0.3-1.5,0.6-2.3,0.8c-1,0.3-2,0.5-3.1,0.7   c-0.9,0.1-1.7,0.2-2.7,0.2l-0.5,0c-0.4,0-0.6,0-0.9,0l-1.6,0c-5.9,0.2-11.9,0.2-17.8,0.3l-2.5,0l-3.1,0c-5.6,0-11.5-0.1-17.1-0.2   l-5-0.1l-6.8-0.3c-2.7-0.1-5.2-0.2-7.8-0.3c-1.2-0.1-2.3-0.1-3.4-0.2c-1.5-0.1-3-0.1-4.4-0.2l0-0.2h-3.2l-0.5,0l-1.7,0l-0.1,0   c-1.1,0.1-2.2,0.2-3.5,0.5c-2.4,0.6-4.6,1.6-6.6,3.1c-1.1,0.8-2,1.7-2.6,2.4l-0.1,0.1l-0.1,0.1c-0.1,0.1-0.2,0.2-0.3,0.3   c-0.2,0.3-0.5,0.6-0.8,1l-0.5,0.6l-0.6,0.9c-2.7,4.3-5.3,8.2-7.7,11.7c-0.2,0.3-0.4,0.5-0.5,0.8C179.3,406.3,179.4,406,179.5,405.7   z" fill="url(#SVGID_10_)"/></g></svg>